<mxfile host="app.diagrams.net" modified="2023-12-07T18:21:11.868Z" agent="Mozilla/5.0 (Macintosh; Intel Mac OS X 10_15_7) AppleWebKit/605.1.15 (KHTML, like Gecko) Version/17.1 Safari/605.1.15" etag="Db0wcR699fNhC8VRjKYX" version="22.1.7" type="device" pages="2">
  <diagram name="Страница — 1" id="dJ-ad8BpFPCqIy9MWti3">
    <mxGraphModel dx="901" dy="1013" grid="1" gridSize="10" guides="1" tooltips="1" connect="1" arrows="1" fold="1" page="1" pageScale="1" pageWidth="827" pageHeight="1169" math="0" shadow="0">
      <root>
        <mxCell id="0" />
        <mxCell id="1" parent="0" />
        <mxCell id="FwIOFZXWLknmSLd2o03_-1" value="" style="edgeStyle=orthogonalEdgeStyle;rounded=0;orthogonalLoop=1;jettySize=auto;html=1;entryX=0.5;entryY=0;entryDx=0;entryDy=0;endArrow=none;endFill=0;" edge="1" parent="1" source="FwIOFZXWLknmSLd2o03_-3" target="FwIOFZXWLknmSLd2o03_-5">
          <mxGeometry relative="1" as="geometry">
            <mxPoint x="1139.97" y="145" as="targetPoint" />
            <Array as="points">
              <mxPoint x="1079.97" y="145" />
            </Array>
          </mxGeometry>
        </mxCell>
        <mxCell id="FwIOFZXWLknmSLd2o03_-2" style="edgeStyle=orthogonalEdgeStyle;rounded=0;orthogonalLoop=1;jettySize=auto;html=1;exitX=0;exitY=0.5;exitDx=0;exitDy=0;exitPerimeter=0;entryX=0.5;entryY=0;entryDx=0;entryDy=0;" edge="1" parent="1" source="FwIOFZXWLknmSLd2o03_-3" target="FwIOFZXWLknmSLd2o03_-8">
          <mxGeometry relative="1" as="geometry">
            <Array as="points">
              <mxPoint x="920" y="145" />
              <mxPoint x="920" y="325" />
              <mxPoint x="1020" y="325" />
            </Array>
          </mxGeometry>
        </mxCell>
        <mxCell id="FwIOFZXWLknmSLd2o03_-3" value="pivot != 1" style="strokeWidth=1;html=1;shape=mxgraph.flowchart.decision;whiteSpace=wrap;" vertex="1" parent="1">
          <mxGeometry x="939.97" y="115" width="120" height="60" as="geometry" />
        </mxCell>
        <mxCell id="FwIOFZXWLknmSLd2o03_-4" value="" style="edgeStyle=orthogonalEdgeStyle;rounded=0;orthogonalLoop=1;jettySize=auto;html=1;endArrow=none;endFill=0;" edge="1" parent="1" source="FwIOFZXWLknmSLd2o03_-5" target="FwIOFZXWLknmSLd2o03_-6">
          <mxGeometry relative="1" as="geometry" />
        </mxCell>
        <mxCell id="FwIOFZXWLknmSLd2o03_-5" value="умножение строки на число pivot" style="shape=process;whiteSpace=wrap;html=1;backgroundOutline=1;" vertex="1" parent="1">
          <mxGeometry x="1019.97" y="195" width="120" height="50" as="geometry" />
        </mxCell>
        <mxCell id="FwIOFZXWLknmSLd2o03_-6" value="умножение строки на число pivot" style="shape=process;whiteSpace=wrap;html=1;backgroundOutline=1;" vertex="1" parent="1">
          <mxGeometry x="1019.97" y="265" width="120" height="50" as="geometry" />
        </mxCell>
        <mxCell id="FwIOFZXWLknmSLd2o03_-7" value="" style="edgeStyle=orthogonalEdgeStyle;rounded=0;orthogonalLoop=1;jettySize=auto;html=1;endArrow=none;endFill=0;" edge="1" parent="1" source="FwIOFZXWLknmSLd2o03_-8" target="FwIOFZXWLknmSLd2o03_-11">
          <mxGeometry relative="1" as="geometry" />
        </mxCell>
        <mxCell id="FwIOFZXWLknmSLd2o03_-8" value="С&lt;br&gt;j &amp;lt; n" style="shape=loopLimit;whiteSpace=wrap;html=1;fontStyle=0;fontSize=10;" vertex="1" parent="1">
          <mxGeometry x="959.97" y="345" width="120" height="40" as="geometry" />
        </mxCell>
        <mxCell id="FwIOFZXWLknmSLd2o03_-9" value="Да" style="text;html=1;strokeColor=none;fillColor=none;align=center;verticalAlign=middle;whiteSpace=wrap;rounded=0;fontSize=7;" vertex="1" parent="1">
          <mxGeometry x="1039.97" y="125" width="60" height="30" as="geometry" />
        </mxCell>
        <mxCell id="FwIOFZXWLknmSLd2o03_-10" style="edgeStyle=orthogonalEdgeStyle;rounded=0;orthogonalLoop=1;jettySize=auto;html=1;exitX=0;exitY=0.5;exitDx=0;exitDy=0;exitPerimeter=0;entryX=0.5;entryY=1;entryDx=0;entryDy=0;" edge="1" parent="1" source="FwIOFZXWLknmSLd2o03_-11" target="FwIOFZXWLknmSLd2o03_-16">
          <mxGeometry relative="1" as="geometry">
            <Array as="points">
              <mxPoint x="940" y="435" />
              <mxPoint x="940" y="700" />
              <mxPoint x="1000" y="700" />
            </Array>
          </mxGeometry>
        </mxCell>
        <mxCell id="FwIOFZXWLknmSLd2o03_-11" value="i != j" style="strokeWidth=1;html=1;shape=mxgraph.flowchart.decision;whiteSpace=wrap;" vertex="1" parent="1">
          <mxGeometry x="959.97" y="405" width="120" height="60" as="geometry" />
        </mxCell>
        <mxCell id="FwIOFZXWLknmSLd2o03_-12" value="factor = matrix[i][i]" style="rounded=0;whiteSpace=wrap;html=1;absoluteArcSize=1;arcSize=14;strokeWidth=1;fontStyle=0;fontSize=10;" vertex="1" parent="1">
          <mxGeometry x="1039.97" y="470" width="120" height="50" as="geometry" />
        </mxCell>
        <mxCell id="FwIOFZXWLknmSLd2o03_-13" value="" style="endArrow=none;html=1;rounded=0;exitX=1;exitY=0.5;exitDx=0;exitDy=0;exitPerimeter=0;entryX=0.5;entryY=0;entryDx=0;entryDy=0;endFill=0;" edge="1" parent="1" source="FwIOFZXWLknmSLd2o03_-11" target="FwIOFZXWLknmSLd2o03_-12">
          <mxGeometry width="50" height="50" relative="1" as="geometry">
            <mxPoint x="1309.97" y="395" as="sourcePoint" />
            <mxPoint x="1359.97" y="345" as="targetPoint" />
            <Array as="points">
              <mxPoint x="1099.97" y="435" />
            </Array>
          </mxGeometry>
        </mxCell>
        <mxCell id="FwIOFZXWLknmSLd2o03_-14" value="Да" style="text;html=1;strokeColor=none;fillColor=none;align=center;verticalAlign=middle;whiteSpace=wrap;rounded=0;fontSize=7;" vertex="1" parent="1">
          <mxGeometry x="1059.97" y="415" width="60" height="30" as="geometry" />
        </mxCell>
        <mxCell id="FwIOFZXWLknmSLd2o03_-15" style="edgeStyle=orthogonalEdgeStyle;rounded=0;orthogonalLoop=1;jettySize=auto;html=1;exitX=0.5;exitY=0;exitDx=0;exitDy=0;endArrow=none;endFill=0;" edge="1" parent="1" source="FwIOFZXWLknmSLd2o03_-16" target="FwIOFZXWLknmSLd2o03_-22">
          <mxGeometry relative="1" as="geometry" />
        </mxCell>
        <mxCell id="FwIOFZXWLknmSLd2o03_-16" value="С" style="shape=loopLimit;whiteSpace=wrap;html=1;fontStyle=0;fontSize=10;direction=west;" vertex="1" parent="1">
          <mxGeometry x="939.97" y="720" width="120" height="40" as="geometry" />
        </mxCell>
        <mxCell id="FwIOFZXWLknmSLd2o03_-17" value="вычитание из j строки помноженную на factor i строку" style="shape=process;whiteSpace=wrap;html=1;backgroundOutline=1;fontSize=10;" vertex="1" parent="1">
          <mxGeometry x="1039.97" y="540" width="120" height="60" as="geometry" />
        </mxCell>
        <mxCell id="FwIOFZXWLknmSLd2o03_-18" value="" style="endArrow=classic;html=1;rounded=0;exitX=0.5;exitY=1;exitDx=0;exitDy=0;" edge="1" parent="1" source="FwIOFZXWLknmSLd2o03_-6">
          <mxGeometry width="50" height="50" relative="1" as="geometry">
            <mxPoint x="1209.97" y="405" as="sourcePoint" />
            <mxPoint x="1019.97" y="345" as="targetPoint" />
            <Array as="points">
              <mxPoint x="1079.97" y="325" />
              <mxPoint x="1049.97" y="325" />
              <mxPoint x="1019.97" y="325" />
              <mxPoint x="1019.97" y="345" />
            </Array>
          </mxGeometry>
        </mxCell>
        <mxCell id="FwIOFZXWLknmSLd2o03_-19" value="вычитание из j строки помноженную на factor i строку" style="shape=process;whiteSpace=wrap;html=1;backgroundOutline=1;fontSize=10;" vertex="1" parent="1">
          <mxGeometry x="1039.97" y="620" width="120" height="60" as="geometry" />
        </mxCell>
        <mxCell id="FwIOFZXWLknmSLd2o03_-20" value="" style="endArrow=none;html=1;rounded=0;exitX=0.5;exitY=1;exitDx=0;exitDy=0;entryX=0.5;entryY=0;entryDx=0;entryDy=0;endFill=0;" edge="1" parent="1" source="FwIOFZXWLknmSLd2o03_-12" target="FwIOFZXWLknmSLd2o03_-17">
          <mxGeometry width="50" height="50" relative="1" as="geometry">
            <mxPoint x="1209.97" y="645" as="sourcePoint" />
            <mxPoint x="1259.97" y="595" as="targetPoint" />
          </mxGeometry>
        </mxCell>
        <mxCell id="FwIOFZXWLknmSLd2o03_-21" value="" style="endArrow=none;html=1;rounded=0;exitX=0.5;exitY=0;exitDx=0;exitDy=0;entryX=0.5;entryY=1;entryDx=0;entryDy=0;endFill=0;" edge="1" parent="1" source="FwIOFZXWLknmSLd2o03_-19" target="FwIOFZXWLknmSLd2o03_-17">
          <mxGeometry width="50" height="50" relative="1" as="geometry">
            <mxPoint x="1109.97" y="515" as="sourcePoint" />
            <mxPoint x="1109.97" y="535" as="targetPoint" />
          </mxGeometry>
        </mxCell>
        <mxCell id="FwIOFZXWLknmSLd2o03_-22" value="А" style="shape=loopLimit;whiteSpace=wrap;html=1;fontStyle=0;fontSize=10;direction=west;" vertex="1" parent="1">
          <mxGeometry x="1029.97" y="800" width="120" height="40" as="geometry" />
        </mxCell>
        <mxCell id="FwIOFZXWLknmSLd2o03_-23" value="" style="endArrow=none;html=1;rounded=0;exitX=0.5;exitY=1;exitDx=0;exitDy=0;endFill=0;" edge="1" parent="1" source="FwIOFZXWLknmSLd2o03_-19">
          <mxGeometry width="50" height="50" relative="1" as="geometry">
            <mxPoint x="1099.9699999999998" y="690" as="sourcePoint" />
            <mxPoint x="1000" y="700" as="targetPoint" />
            <Array as="points">
              <mxPoint x="1099.97" y="700" />
            </Array>
          </mxGeometry>
        </mxCell>
        <mxCell id="FwIOFZXWLknmSLd2o03_-24" value="A" style="ellipse;whiteSpace=wrap;html=1;aspect=fixed;" vertex="1" parent="1">
          <mxGeometry x="974.97" y="45" width="50" height="50" as="geometry" />
        </mxCell>
        <mxCell id="FwIOFZXWLknmSLd2o03_-25" value="" style="endArrow=none;html=1;rounded=0;exitX=0.5;exitY=1;exitDx=0;exitDy=0;entryX=0.5;entryY=0;entryDx=0;entryDy=0;entryPerimeter=0;endFill=0;" edge="1" parent="1" source="FwIOFZXWLknmSLd2o03_-24" target="FwIOFZXWLknmSLd2o03_-3">
          <mxGeometry width="50" height="50" relative="1" as="geometry">
            <mxPoint x="1169.97" y="375" as="sourcePoint" />
            <mxPoint x="1219.97" y="325" as="targetPoint" />
          </mxGeometry>
        </mxCell>
        <mxCell id="FwIOFZXWLknmSLd2o03_-26" style="edgeStyle=orthogonalEdgeStyle;rounded=0;orthogonalLoop=1;jettySize=auto;html=1;exitX=0.5;exitY=1;exitDx=0;exitDy=0;entryX=0.5;entryY=1;entryDx=0;entryDy=0;endArrow=none;endFill=0;" edge="1" parent="1" source="FwIOFZXWLknmSLd2o03_-27" target="FwIOFZXWLknmSLd2o03_-22">
          <mxGeometry relative="1" as="geometry">
            <Array as="points">
              <mxPoint x="1185" y="780" />
              <mxPoint x="1090" y="780" />
            </Array>
          </mxGeometry>
        </mxCell>
        <mxCell id="FwIOFZXWLknmSLd2o03_-27" value="Б" style="ellipse;whiteSpace=wrap;html=1;aspect=fixed;" vertex="1" parent="1">
          <mxGeometry x="1159.97" y="45" width="50" height="50" as="geometry" />
        </mxCell>
        <mxCell id="FwIOFZXWLknmSLd2o03_-28" value="Конец" style="strokeWidth=1;html=1;shape=mxgraph.flowchart.terminator;whiteSpace=wrap;fontStyle=0;fontSize=10;" vertex="1" parent="1">
          <mxGeometry x="1030" y="860" width="120" height="50" as="geometry" />
        </mxCell>
        <mxCell id="FwIOFZXWLknmSLd2o03_-29" value="" style="endArrow=none;html=1;rounded=0;exitX=0.5;exitY=0;exitDx=0;exitDy=0;entryX=0.5;entryY=0;entryDx=0;entryDy=0;entryPerimeter=0;endFill=0;" edge="1" parent="1" source="FwIOFZXWLknmSLd2o03_-22" target="FwIOFZXWLknmSLd2o03_-28">
          <mxGeometry width="50" height="50" relative="1" as="geometry">
            <mxPoint x="1184.97" y="750" as="sourcePoint" />
            <mxPoint x="1234.97" y="700" as="targetPoint" />
          </mxGeometry>
        </mxCell>
      </root>
    </mxGraphModel>
  </diagram>
  <diagram id="2IiIeFuMdj9LFwa6WWWz" name="Страница — 2">
    <mxGraphModel dx="2901" dy="1215" grid="1" gridSize="10" guides="1" tooltips="1" connect="1" arrows="1" fold="1" page="1" pageScale="1" pageWidth="827" pageHeight="1169" math="0" shadow="0">
      <root>
        <mxCell id="0" />
        <mxCell id="1" parent="0" />
        <mxCell id="rmEsZAkBRUs4CuV5AtIg-1" value="Начало&lt;br style=&quot;font-size: 10px;&quot;&gt;" style="strokeWidth=1;html=1;shape=mxgraph.flowchart.terminator;whiteSpace=wrap;fontStyle=0;fontSize=10;" vertex="1" parent="1">
          <mxGeometry x="-50" y="60" width="120" height="50" as="geometry" />
        </mxCell>
        <mxCell id="rmEsZAkBRUs4CuV5AtIg-2" value="" style="edgeStyle=orthogonalEdgeStyle;rounded=0;orthogonalLoop=1;jettySize=auto;html=1;fontStyle=0;fontSize=10;endArrow=none;endFill=0;" edge="1" parent="1" source="rmEsZAkBRUs4CuV5AtIg-3">
          <mxGeometry relative="1" as="geometry">
            <mxPoint x="10.028571428571468" y="250" as="targetPoint" />
          </mxGeometry>
        </mxCell>
        <mxCell id="rmEsZAkBRUs4CuV5AtIg-3" value="A&lt;br&gt;t &amp;lt; numThreads" style="shape=loopLimit;whiteSpace=wrap;html=1;fontStyle=0;fontSize=10;" vertex="1" parent="1">
          <mxGeometry x="-50" y="250" width="120" height="40" as="geometry" />
        </mxCell>
        <mxCell id="rmEsZAkBRUs4CuV5AtIg-4" value="" style="edgeStyle=orthogonalEdgeStyle;rounded=0;orthogonalLoop=1;jettySize=auto;html=1;endArrow=none;endFill=0;" edge="1" parent="1">
          <mxGeometry relative="1" as="geometry">
            <mxPoint x="10" y="290" as="sourcePoint" />
            <mxPoint x="10.028571428571468" y="310" as="targetPoint" />
          </mxGeometry>
        </mxCell>
        <mxCell id="rmEsZAkBRUs4CuV5AtIg-5" value="" style="edgeStyle=orthogonalEdgeStyle;rounded=0;orthogonalLoop=1;jettySize=auto;html=1;endArrow=none;endFill=0;" edge="1" parent="1" source="rmEsZAkBRUs4CuV5AtIg-7" target="rmEsZAkBRUs4CuV5AtIg-1">
          <mxGeometry relative="1" as="geometry" />
        </mxCell>
        <mxCell id="rmEsZAkBRUs4CuV5AtIg-6" style="edgeStyle=orthogonalEdgeStyle;rounded=0;orthogonalLoop=1;jettySize=auto;html=1;exitX=0.5;exitY=1;exitDx=0;exitDy=0;entryX=0.5;entryY=0;entryDx=0;entryDy=0;endArrow=none;endFill=0;" edge="1" parent="1" source="rmEsZAkBRUs4CuV5AtIg-7" target="rmEsZAkBRUs4CuV5AtIg-12">
          <mxGeometry relative="1" as="geometry" />
        </mxCell>
        <mxCell id="rmEsZAkBRUs4CuV5AtIg-7" value="pthread_t threads[MAX_N]" style="rounded=0;whiteSpace=wrap;html=1;absoluteArcSize=1;arcSize=14;strokeWidth=1;fontStyle=0;fontSize=9;" vertex="1" parent="1">
          <mxGeometry x="-50" y="130" width="120" height="40" as="geometry" />
        </mxCell>
        <mxCell id="rmEsZAkBRUs4CuV5AtIg-8" style="edgeStyle=orthogonalEdgeStyle;rounded=0;orthogonalLoop=1;jettySize=auto;html=1;exitX=0.5;exitY=1;exitDx=0;exitDy=0;entryX=0.5;entryY=0;entryDx=0;entryDy=0;endArrow=none;endFill=0;" edge="1" parent="1" source="rmEsZAkBRUs4CuV5AtIg-9" target="rmEsZAkBRUs4CuV5AtIg-14">
          <mxGeometry relative="1" as="geometry" />
        </mxCell>
        <mxCell id="rmEsZAkBRUs4CuV5AtIg-9" value="args[t].matrix = matrix" style="rounded=0;whiteSpace=wrap;html=1;absoluteArcSize=1;arcSize=14;strokeWidth=1;fontStyle=0;fontSize=9;" vertex="1" parent="1">
          <mxGeometry x="-50" y="310" width="120" height="40" as="geometry" />
        </mxCell>
        <mxCell id="rmEsZAkBRUs4CuV5AtIg-10" value="" style="edgeStyle=orthogonalEdgeStyle;rounded=0;orthogonalLoop=1;jettySize=auto;html=1;endArrow=none;endFill=0;" edge="1" parent="1" source="rmEsZAkBRUs4CuV5AtIg-11" target="rmEsZAkBRUs4CuV5AtIg-18">
          <mxGeometry relative="1" as="geometry" />
        </mxCell>
        <mxCell id="rmEsZAkBRUs4CuV5AtIg-11" value="&lt;font style=&quot;font-size: 8px;&quot;&gt;args[t].start=t*(n/numThreads)&lt;br&gt;&lt;/font&gt;" style="rounded=0;whiteSpace=wrap;html=1;absoluteArcSize=1;arcSize=14;strokeWidth=1;fontStyle=0;fontSize=9;" vertex="1" parent="1">
          <mxGeometry x="-50" y="490" width="120" height="40" as="geometry" />
        </mxCell>
        <mxCell id="rmEsZAkBRUs4CuV5AtIg-12" value="GaussArgs args[MAX_N]" style="rounded=0;whiteSpace=wrap;html=1;absoluteArcSize=1;arcSize=14;strokeWidth=1;fontStyle=0;fontSize=9;" vertex="1" parent="1">
          <mxGeometry x="-50" y="190" width="120" height="40" as="geometry" />
        </mxCell>
        <mxCell id="rmEsZAkBRUs4CuV5AtIg-13" style="edgeStyle=orthogonalEdgeStyle;rounded=0;orthogonalLoop=1;jettySize=auto;html=1;exitX=0.5;exitY=1;exitDx=0;exitDy=0;entryX=0.5;entryY=0;entryDx=0;entryDy=0;endArrow=none;endFill=0;" edge="1" parent="1" source="rmEsZAkBRUs4CuV5AtIg-14" target="rmEsZAkBRUs4CuV5AtIg-16">
          <mxGeometry relative="1" as="geometry" />
        </mxCell>
        <mxCell id="rmEsZAkBRUs4CuV5AtIg-14" value="args[t].inverse = inverse" style="rounded=0;whiteSpace=wrap;html=1;absoluteArcSize=1;arcSize=14;strokeWidth=1;fontStyle=0;fontSize=9;" vertex="1" parent="1">
          <mxGeometry x="-50" y="370" width="120" height="40" as="geometry" />
        </mxCell>
        <mxCell id="rmEsZAkBRUs4CuV5AtIg-15" style="edgeStyle=orthogonalEdgeStyle;rounded=0;orthogonalLoop=1;jettySize=auto;html=1;exitX=0.5;exitY=1;exitDx=0;exitDy=0;entryX=0.5;entryY=0;entryDx=0;entryDy=0;endArrow=none;endFill=0;" edge="1" parent="1" source="rmEsZAkBRUs4CuV5AtIg-16" target="rmEsZAkBRUs4CuV5AtIg-11">
          <mxGeometry relative="1" as="geometry" />
        </mxCell>
        <mxCell id="rmEsZAkBRUs4CuV5AtIg-16" value="args[t].n = n" style="rounded=0;whiteSpace=wrap;html=1;absoluteArcSize=1;arcSize=14;strokeWidth=1;fontStyle=0;fontSize=9;" vertex="1" parent="1">
          <mxGeometry x="-50" y="430" width="120" height="40" as="geometry" />
        </mxCell>
        <mxCell id="rmEsZAkBRUs4CuV5AtIg-17" style="edgeStyle=orthogonalEdgeStyle;rounded=0;orthogonalLoop=1;jettySize=auto;html=1;exitX=0.5;exitY=1;exitDx=0;exitDy=0;entryX=0.5;entryY=0;entryDx=0;entryDy=0;endArrow=none;endFill=0;" edge="1" parent="1" source="rmEsZAkBRUs4CuV5AtIg-18" target="rmEsZAkBRUs4CuV5AtIg-19">
          <mxGeometry relative="1" as="geometry" />
        </mxCell>
        <mxCell id="rmEsZAkBRUs4CuV5AtIg-18" value="&lt;font style=&quot;font-size: 8px;&quot;&gt;args[t].end=(t+1)*(n/numThreads)&lt;br&gt;&lt;/font&gt;" style="rounded=0;whiteSpace=wrap;html=1;absoluteArcSize=1;arcSize=14;strokeWidth=1;fontStyle=0;fontSize=9;" vertex="1" parent="1">
          <mxGeometry x="-50" y="550" width="120" height="40" as="geometry" />
        </mxCell>
        <mxCell id="rmEsZAkBRUs4CuV5AtIg-19" value="А" style="ellipse;whiteSpace=wrap;html=1;aspect=fixed;" vertex="1" parent="1">
          <mxGeometry x="-20" y="610" width="60" height="60" as="geometry" />
        </mxCell>
        <mxCell id="1ma7O_KVG9d09WgrFBpP-1" style="edgeStyle=orthogonalEdgeStyle;rounded=0;orthogonalLoop=1;jettySize=auto;html=1;exitX=0;exitY=0.5;exitDx=0;exitDy=0;entryX=0.5;entryY=0;entryDx=0;entryDy=0;" edge="1" parent="1" source="1ma7O_KVG9d09WgrFBpP-2" target="1ma7O_KVG9d09WgrFBpP-6">
          <mxGeometry relative="1" as="geometry">
            <Array as="points">
              <mxPoint x="120" y="200" />
              <mxPoint x="120" y="295" />
              <mxPoint x="210" y="295" />
            </Array>
          </mxGeometry>
        </mxCell>
        <mxCell id="1ma7O_KVG9d09WgrFBpP-2" value="t == numThreads - 1" style="rhombus;whiteSpace=wrap;html=1;fontSize=10;" vertex="1" parent="1">
          <mxGeometry x="140" y="165" width="120" height="70" as="geometry" />
        </mxCell>
        <mxCell id="1ma7O_KVG9d09WgrFBpP-3" value="args[t].end = n" style="rounded=0;whiteSpace=wrap;html=1;absoluteArcSize=1;arcSize=14;strokeWidth=1;fontStyle=0;fontSize=9;" vertex="1" parent="1">
          <mxGeometry x="220" y="245" width="120" height="40" as="geometry" />
        </mxCell>
        <mxCell id="1ma7O_KVG9d09WgrFBpP-4" value="" style="endArrow=none;html=1;rounded=0;entryX=1;entryY=0.5;entryDx=0;entryDy=0;exitX=0.5;exitY=0;exitDx=0;exitDy=0;endFill=0;" edge="1" parent="1" source="1ma7O_KVG9d09WgrFBpP-3" target="1ma7O_KVG9d09WgrFBpP-2">
          <mxGeometry width="50" height="50" relative="1" as="geometry">
            <mxPoint x="330" y="265" as="sourcePoint" />
            <mxPoint x="380" y="215" as="targetPoint" />
            <Array as="points">
              <mxPoint x="280" y="200" />
            </Array>
          </mxGeometry>
        </mxCell>
        <mxCell id="1ma7O_KVG9d09WgrFBpP-5" value="" style="edgeStyle=orthogonalEdgeStyle;rounded=0;orthogonalLoop=1;jettySize=auto;html=1;endArrow=none;endFill=0;" edge="1" parent="1" source="1ma7O_KVG9d09WgrFBpP-6" target="1ma7O_KVG9d09WgrFBpP-3">
          <mxGeometry relative="1" as="geometry">
            <Array as="points">
              <mxPoint x="210" y="295" />
              <mxPoint x="280" y="295" />
            </Array>
          </mxGeometry>
        </mxCell>
        <mxCell id="1ma7O_KVG9d09WgrFBpP-6" value="выполнение в отдельном потоке функцию метода Гаусса для определенных строк&amp;nbsp;" style="shape=process;whiteSpace=wrap;html=1;backgroundOutline=1;fontSize=9;" vertex="1" parent="1">
          <mxGeometry x="150" y="315" width="120" height="55" as="geometry" />
        </mxCell>
        <mxCell id="1ma7O_KVG9d09WgrFBpP-7" style="edgeStyle=orthogonalEdgeStyle;rounded=0;orthogonalLoop=1;jettySize=auto;html=1;exitX=0.5;exitY=0;exitDx=0;exitDy=0;entryX=0.5;entryY=0;entryDx=0;entryDy=0;endArrow=none;endFill=0;" edge="1" parent="1" source="1ma7O_KVG9d09WgrFBpP-8" target="1ma7O_KVG9d09WgrFBpP-10">
          <mxGeometry relative="1" as="geometry" />
        </mxCell>
        <mxCell id="1ma7O_KVG9d09WgrFBpP-8" value="А" style="shape=loopLimit;whiteSpace=wrap;html=1;fontStyle=0;fontSize=10;direction=west;" vertex="1" parent="1">
          <mxGeometry x="150" y="385" width="120" height="40" as="geometry" />
        </mxCell>
        <mxCell id="1ma7O_KVG9d09WgrFBpP-9" style="edgeStyle=orthogonalEdgeStyle;rounded=0;orthogonalLoop=1;jettySize=auto;html=1;exitX=0.5;exitY=1;exitDx=0;exitDy=0;entryX=0.5;entryY=0;entryDx=0;entryDy=0;endArrow=none;endFill=0;" edge="1" parent="1" source="1ma7O_KVG9d09WgrFBpP-10" target="1ma7O_KVG9d09WgrFBpP-14">
          <mxGeometry relative="1" as="geometry" />
        </mxCell>
        <mxCell id="1ma7O_KVG9d09WgrFBpP-10" value="B&lt;br&gt;t &amp;lt; numThreads" style="shape=loopLimit;whiteSpace=wrap;html=1;fontStyle=0;fontSize=10;" vertex="1" parent="1">
          <mxGeometry x="150" y="445" width="120" height="40" as="geometry" />
        </mxCell>
        <mxCell id="1ma7O_KVG9d09WgrFBpP-11" value="B" style="shape=loopLimit;whiteSpace=wrap;html=1;fontStyle=0;fontSize=10;direction=west;" vertex="1" parent="1">
          <mxGeometry x="150" y="565" width="120" height="40" as="geometry" />
        </mxCell>
        <mxCell id="1ma7O_KVG9d09WgrFBpP-12" value="" style="endArrow=none;html=1;rounded=0;exitX=0.5;exitY=1;exitDx=0;exitDy=0;entryX=0.5;entryY=1;entryDx=0;entryDy=0;endFill=0;" edge="1" parent="1" source="1ma7O_KVG9d09WgrFBpP-6" target="1ma7O_KVG9d09WgrFBpP-8">
          <mxGeometry width="50" height="50" relative="1" as="geometry">
            <mxPoint x="330" y="455" as="sourcePoint" />
            <mxPoint x="380" y="405" as="targetPoint" />
          </mxGeometry>
        </mxCell>
        <mxCell id="1ma7O_KVG9d09WgrFBpP-13" style="edgeStyle=orthogonalEdgeStyle;rounded=0;orthogonalLoop=1;jettySize=auto;html=1;exitX=0.5;exitY=1;exitDx=0;exitDy=0;entryX=0.5;entryY=1;entryDx=0;entryDy=0;endArrow=none;endFill=0;" edge="1" parent="1" source="1ma7O_KVG9d09WgrFBpP-14" target="1ma7O_KVG9d09WgrFBpP-11">
          <mxGeometry relative="1" as="geometry" />
        </mxCell>
        <mxCell id="1ma7O_KVG9d09WgrFBpP-14" value="ожидание завершения потоков" style="shape=process;whiteSpace=wrap;html=1;backgroundOutline=1;fontSize=9;" vertex="1" parent="1">
          <mxGeometry x="150" y="505" width="120" height="40" as="geometry" />
        </mxCell>
        <mxCell id="1ma7O_KVG9d09WgrFBpP-15" value="Конец" style="strokeWidth=1;html=1;shape=mxgraph.flowchart.terminator;whiteSpace=wrap;fontStyle=0;fontSize=10;" vertex="1" parent="1">
          <mxGeometry x="150" y="625" width="120" height="50" as="geometry" />
        </mxCell>
        <mxCell id="1ma7O_KVG9d09WgrFBpP-16" value="" style="endArrow=none;html=1;rounded=0;exitX=0.5;exitY=0;exitDx=0;exitDy=0;entryX=0.5;entryY=0;entryDx=0;entryDy=0;entryPerimeter=0;endFill=0;" edge="1" parent="1" source="1ma7O_KVG9d09WgrFBpP-11" target="1ma7O_KVG9d09WgrFBpP-15">
          <mxGeometry width="50" height="50" relative="1" as="geometry">
            <mxPoint x="330" y="435" as="sourcePoint" />
            <mxPoint x="380" y="385" as="targetPoint" />
          </mxGeometry>
        </mxCell>
        <mxCell id="1ma7O_KVG9d09WgrFBpP-17" value="Да" style="text;html=1;strokeColor=none;fillColor=none;align=center;verticalAlign=middle;whiteSpace=wrap;rounded=0;fontSize=7;" vertex="1" parent="1">
          <mxGeometry x="240" y="175" width="60" height="30" as="geometry" />
        </mxCell>
        <mxCell id="1ma7O_KVG9d09WgrFBpP-18" style="edgeStyle=orthogonalEdgeStyle;rounded=0;orthogonalLoop=1;jettySize=auto;html=1;exitX=0.5;exitY=1;exitDx=0;exitDy=0;entryX=0.5;entryY=0;entryDx=0;entryDy=0;endArrow=none;endFill=0;" edge="1" parent="1" source="1ma7O_KVG9d09WgrFBpP-19" target="1ma7O_KVG9d09WgrFBpP-2">
          <mxGeometry relative="1" as="geometry" />
        </mxCell>
        <mxCell id="1ma7O_KVG9d09WgrFBpP-19" value="А" style="ellipse;whiteSpace=wrap;html=1;aspect=fixed;" vertex="1" parent="1">
          <mxGeometry x="170" y="85" width="60" height="60" as="geometry" />
        </mxCell>
        <mxCell id="eSYWCo3_VccWLEgFW9V7-1" value="" style="edgeStyle=orthogonalEdgeStyle;rounded=0;orthogonalLoop=1;jettySize=auto;html=1;fontStyle=0;fontSize=12;endArrow=none;endFill=0;" edge="1" parent="1" source="eSYWCo3_VccWLEgFW9V7-2" target="eSYWCo3_VccWLEgFW9V7-4">
          <mxGeometry relative="1" as="geometry" />
        </mxCell>
        <mxCell id="eSYWCo3_VccWLEgFW9V7-2" value="Начало&lt;br style=&quot;font-size: 12px;&quot;&gt;" style="strokeWidth=1;html=1;shape=mxgraph.flowchart.terminator;whiteSpace=wrap;fontStyle=0;fontSize=12;" vertex="1" parent="1">
          <mxGeometry x="409.97" y="60" width="120" height="50" as="geometry" />
        </mxCell>
        <mxCell id="eSYWCo3_VccWLEgFW9V7-3" value="" style="edgeStyle=orthogonalEdgeStyle;rounded=0;orthogonalLoop=1;jettySize=auto;html=1;fontStyle=0;fontSize=12;endArrow=none;endFill=0;" edge="1" parent="1" source="eSYWCo3_VccWLEgFW9V7-4">
          <mxGeometry relative="1" as="geometry">
            <mxPoint x="469.9985714285715" y="190" as="targetPoint" />
          </mxGeometry>
        </mxCell>
        <mxCell id="eSYWCo3_VccWLEgFW9V7-4" value="A&lt;br style=&quot;font-size: 12px;&quot;&gt;i = start; i &amp;lt; end" style="shape=loopLimit;whiteSpace=wrap;html=1;fontStyle=0;fontSize=12;" vertex="1" parent="1">
          <mxGeometry x="409.97" y="130" width="120" height="40" as="geometry" />
        </mxCell>
        <mxCell id="eSYWCo3_VccWLEgFW9V7-5" value="" style="edgeStyle=orthogonalEdgeStyle;rounded=0;orthogonalLoop=1;jettySize=auto;html=1;endArrow=none;endFill=0;fontSize=12;" edge="1" parent="1" source="eSYWCo3_VccWLEgFW9V7-6" target="eSYWCo3_VccWLEgFW9V7-9">
          <mxGeometry relative="1" as="geometry" />
        </mxCell>
        <mxCell id="eSYWCo3_VccWLEgFW9V7-6" value="pivot = matrix[i][i]" style="rounded=0;whiteSpace=wrap;html=1;absoluteArcSize=1;arcSize=14;strokeWidth=1;fontStyle=0;fontSize=12;" vertex="1" parent="1">
          <mxGeometry x="409.97" y="190" width="120" height="50" as="geometry" />
        </mxCell>
        <mxCell id="eSYWCo3_VccWLEgFW9V7-7" style="edgeStyle=orthogonalEdgeStyle;rounded=0;orthogonalLoop=1;jettySize=auto;html=1;exitX=1;exitY=0.5;exitDx=0;exitDy=0;exitPerimeter=0;entryX=0.5;entryY=0;entryDx=0;entryDy=0;endArrow=none;endFill=0;fontSize=12;" edge="1" parent="1" source="eSYWCo3_VccWLEgFW9V7-9">
          <mxGeometry relative="1" as="geometry">
            <mxPoint x="549.9700000000003" y="340" as="targetPoint" />
          </mxGeometry>
        </mxCell>
        <mxCell id="eSYWCo3_VccWLEgFW9V7-8" style="edgeStyle=orthogonalEdgeStyle;rounded=0;orthogonalLoop=1;jettySize=auto;html=1;exitX=0;exitY=0.5;exitDx=0;exitDy=0;exitPerimeter=0;fontSize=12;" edge="1" parent="1" source="eSYWCo3_VccWLEgFW9V7-9" target="eSYWCo3_VccWLEgFW9V7-25">
          <mxGeometry relative="1" as="geometry">
            <Array as="points">
              <mxPoint x="390" y="290" />
              <mxPoint x="390" y="820" />
              <mxPoint x="425" y="820" />
            </Array>
          </mxGeometry>
        </mxCell>
        <mxCell id="eSYWCo3_VccWLEgFW9V7-9" value="pivot = 0" style="strokeWidth=1;html=1;shape=mxgraph.flowchart.decision;whiteSpace=wrap;fontSize=12;" vertex="1" parent="1">
          <mxGeometry x="409.97" y="260" width="120" height="60" as="geometry" />
        </mxCell>
        <mxCell id="eSYWCo3_VccWLEgFW9V7-10" style="edgeStyle=orthogonalEdgeStyle;rounded=0;orthogonalLoop=1;jettySize=auto;html=1;exitX=0.5;exitY=1;exitDx=0;exitDy=0;entryX=0.5;entryY=0;entryDx=0;entryDy=0;endArrow=none;endFill=0;fontSize=12;" edge="1" parent="1" source="eSYWCo3_VccWLEgFW9V7-11" target="eSYWCo3_VccWLEgFW9V7-28">
          <mxGeometry relative="1" as="geometry" />
        </mxCell>
        <mxCell id="eSYWCo3_VccWLEgFW9V7-11" value="B&lt;br style=&quot;font-size: 12px;&quot;&gt;k = i + 1; k &amp;lt; n &amp;amp;&amp;amp; &lt;br style=&quot;font-size: 12px;&quot;&gt;matrix[i][i] == 0.0" style="shape=loopLimit;whiteSpace=wrap;html=1;fontStyle=0;fontSize=12;" vertex="1" parent="1">
          <mxGeometry x="489.97" y="340" width="120" height="40" as="geometry" />
        </mxCell>
        <mxCell id="eSYWCo3_VccWLEgFW9V7-12" value="k &amp;lt; n" style="strokeWidth=1;html=1;shape=mxgraph.flowchart.decision;whiteSpace=wrap;fontSize=12;" vertex="1" parent="1">
          <mxGeometry x="489.97" y="530" width="120" height="60" as="geometry" />
        </mxCell>
        <mxCell id="eSYWCo3_VccWLEgFW9V7-13" value="Да" style="text;html=1;strokeColor=none;fillColor=none;align=center;verticalAlign=middle;whiteSpace=wrap;rounded=0;fontSize=12;" vertex="1" parent="1">
          <mxGeometry x="509.97" y="270" width="60" height="30" as="geometry" />
        </mxCell>
        <mxCell id="eSYWCo3_VccWLEgFW9V7-14" value="" style="edgeStyle=orthogonalEdgeStyle;rounded=0;orthogonalLoop=1;jettySize=auto;html=1;endArrow=none;endFill=0;fontSize=12;" edge="1" parent="1" source="eSYWCo3_VccWLEgFW9V7-15" target="eSYWCo3_VccWLEgFW9V7-17">
          <mxGeometry relative="1" as="geometry" />
        </mxCell>
        <mxCell id="eSYWCo3_VccWLEgFW9V7-15" value="смена строки местами (i с k)" style="shape=process;whiteSpace=wrap;html=1;backgroundOutline=1;fontSize=12;" vertex="1" parent="1">
          <mxGeometry x="405" y="610" width="120" height="50" as="geometry" />
        </mxCell>
        <mxCell id="eSYWCo3_VccWLEgFW9V7-16" value="" style="edgeStyle=orthogonalEdgeStyle;rounded=0;orthogonalLoop=1;jettySize=auto;html=1;endArrow=none;endFill=0;fontSize=12;" edge="1" parent="1" source="eSYWCo3_VccWLEgFW9V7-17" target="eSYWCo3_VccWLEgFW9V7-19">
          <mxGeometry relative="1" as="geometry" />
        </mxCell>
        <mxCell id="eSYWCo3_VccWLEgFW9V7-17" value="смена строки местами в (i с k)" style="shape=process;whiteSpace=wrap;html=1;backgroundOutline=1;fontSize=12;" vertex="1" parent="1">
          <mxGeometry x="405" y="680" width="120" height="50" as="geometry" />
        </mxCell>
        <mxCell id="eSYWCo3_VccWLEgFW9V7-18" style="edgeStyle=orthogonalEdgeStyle;rounded=0;orthogonalLoop=1;jettySize=auto;html=1;exitX=0.5;exitY=1;exitDx=0;exitDy=0;entryX=0.5;entryY=0;entryDx=0;entryDy=0;fontSize=12;" edge="1" parent="1" source="eSYWCo3_VccWLEgFW9V7-19" target="eSYWCo3_VccWLEgFW9V7-25">
          <mxGeometry relative="1" as="geometry" />
        </mxCell>
        <mxCell id="eSYWCo3_VccWLEgFW9V7-19" value="pivot = matrix[i][i]" style="rounded=0;whiteSpace=wrap;html=1;absoluteArcSize=1;arcSize=14;strokeWidth=1;fontStyle=0;fontSize=12;" vertex="1" parent="1">
          <mxGeometry x="405" y="750" width="120" height="50" as="geometry" />
        </mxCell>
        <mxCell id="eSYWCo3_VccWLEgFW9V7-20" value="" style="endArrow=classic;html=1;rounded=0;exitX=0;exitY=0.5;exitDx=0;exitDy=0;exitPerimeter=0;entryX=0.5;entryY=0;entryDx=0;entryDy=0;fontSize=12;" edge="1" parent="1" source="eSYWCo3_VccWLEgFW9V7-12" target="eSYWCo3_VccWLEgFW9V7-15">
          <mxGeometry width="50" height="50" relative="1" as="geometry">
            <mxPoint x="675" y="610" as="sourcePoint" />
            <mxPoint x="725" y="560" as="targetPoint" />
            <Array as="points">
              <mxPoint x="465" y="560" />
            </Array>
          </mxGeometry>
        </mxCell>
        <mxCell id="eSYWCo3_VccWLEgFW9V7-21" value="B" style="shape=loopLimit;whiteSpace=wrap;html=1;fontStyle=0;fontSize=12;direction=west;" vertex="1" parent="1">
          <mxGeometry x="489.97" y="470" width="120" height="40" as="geometry" />
        </mxCell>
        <mxCell id="eSYWCo3_VccWLEgFW9V7-22" value="" style="edgeStyle=orthogonalEdgeStyle;rounded=0;orthogonalLoop=1;jettySize=auto;html=1;endArrow=none;endFill=0;fontSize=12;" edge="1" parent="1">
          <mxGeometry relative="1" as="geometry">
            <mxPoint x="549.6800000000001" y="510" as="sourcePoint" />
            <mxPoint x="549.6800000000001" y="530" as="targetPoint" />
          </mxGeometry>
        </mxCell>
        <mxCell id="eSYWCo3_VccWLEgFW9V7-23" value="" style="endArrow=none;html=1;rounded=0;exitX=1;exitY=0.5;exitDx=0;exitDy=0;exitPerimeter=0;endFill=0;entryX=0.5;entryY=0;entryDx=0;entryDy=0;fontSize=12;" edge="1" parent="1" source="eSYWCo3_VccWLEgFW9V7-12" target="eSYWCo3_VccWLEgFW9V7-26">
          <mxGeometry width="50" height="50" relative="1" as="geometry">
            <mxPoint x="635" y="800" as="sourcePoint" />
            <mxPoint x="635" y="780" as="targetPoint" />
            <Array as="points">
              <mxPoint x="625" y="560" />
            </Array>
          </mxGeometry>
        </mxCell>
        <mxCell id="eSYWCo3_VccWLEgFW9V7-24" value="Да" style="text;html=1;strokeColor=none;fillColor=none;align=center;verticalAlign=middle;whiteSpace=wrap;rounded=0;fontSize=12;" vertex="1" parent="1">
          <mxGeometry x="590" y="540" width="60" height="30" as="geometry" />
        </mxCell>
        <mxCell id="eSYWCo3_VccWLEgFW9V7-25" value="A" style="ellipse;whiteSpace=wrap;html=1;aspect=fixed;fontSize=12;" vertex="1" parent="1">
          <mxGeometry x="400" y="840" width="50" height="50" as="geometry" />
        </mxCell>
        <mxCell id="eSYWCo3_VccWLEgFW9V7-26" value="Б" style="ellipse;whiteSpace=wrap;html=1;aspect=fixed;fontSize=12;" vertex="1" parent="1">
          <mxGeometry x="600" y="810" width="50" height="50" as="geometry" />
        </mxCell>
        <mxCell id="eSYWCo3_VccWLEgFW9V7-27" value="" style="edgeStyle=orthogonalEdgeStyle;rounded=0;orthogonalLoop=1;jettySize=auto;html=1;endArrow=none;endFill=0;fontSize=12;" edge="1" parent="1" source="eSYWCo3_VccWLEgFW9V7-28" target="eSYWCo3_VccWLEgFW9V7-21">
          <mxGeometry relative="1" as="geometry" />
        </mxCell>
        <mxCell id="eSYWCo3_VccWLEgFW9V7-28" value="k++" style="rounded=0;whiteSpace=wrap;html=1;absoluteArcSize=1;arcSize=14;strokeWidth=1;fontStyle=0;fontSize=12;" vertex="1" parent="1">
          <mxGeometry x="489.97" y="400" width="120" height="50" as="geometry" />
        </mxCell>
        <mxCell id="hqtBU6SoIQfOZgackHXl-1" value="" style="edgeStyle=orthogonalEdgeStyle;rounded=0;orthogonalLoop=1;jettySize=auto;html=1;entryX=0.5;entryY=0;entryDx=0;entryDy=0;endArrow=none;endFill=0;" edge="1" parent="1" source="hqtBU6SoIQfOZgackHXl-3" target="hqtBU6SoIQfOZgackHXl-5">
          <mxGeometry relative="1" as="geometry">
            <mxPoint x="899.97" y="145" as="targetPoint" />
            <Array as="points">
              <mxPoint x="839.97" y="145" />
            </Array>
          </mxGeometry>
        </mxCell>
        <mxCell id="hqtBU6SoIQfOZgackHXl-2" style="edgeStyle=orthogonalEdgeStyle;rounded=0;orthogonalLoop=1;jettySize=auto;html=1;exitX=0;exitY=0.5;exitDx=0;exitDy=0;exitPerimeter=0;entryX=0.5;entryY=0;entryDx=0;entryDy=0;" edge="1" parent="1" source="hqtBU6SoIQfOZgackHXl-3" target="hqtBU6SoIQfOZgackHXl-8">
          <mxGeometry relative="1" as="geometry">
            <Array as="points">
              <mxPoint x="680" y="145" />
              <mxPoint x="680" y="325" />
              <mxPoint x="780" y="325" />
            </Array>
          </mxGeometry>
        </mxCell>
        <mxCell id="hqtBU6SoIQfOZgackHXl-3" value="pivot != 1" style="strokeWidth=1;html=1;shape=mxgraph.flowchart.decision;whiteSpace=wrap;" vertex="1" parent="1">
          <mxGeometry x="699.97" y="115" width="120" height="60" as="geometry" />
        </mxCell>
        <mxCell id="hqtBU6SoIQfOZgackHXl-4" value="" style="edgeStyle=orthogonalEdgeStyle;rounded=0;orthogonalLoop=1;jettySize=auto;html=1;endArrow=none;endFill=0;" edge="1" parent="1" source="hqtBU6SoIQfOZgackHXl-5" target="hqtBU6SoIQfOZgackHXl-6">
          <mxGeometry relative="1" as="geometry" />
        </mxCell>
        <mxCell id="hqtBU6SoIQfOZgackHXl-5" value="умножение строки на число pivot" style="shape=process;whiteSpace=wrap;html=1;backgroundOutline=1;" vertex="1" parent="1">
          <mxGeometry x="779.97" y="195" width="120" height="50" as="geometry" />
        </mxCell>
        <mxCell id="hqtBU6SoIQfOZgackHXl-6" value="умножение строки на число pivot" style="shape=process;whiteSpace=wrap;html=1;backgroundOutline=1;" vertex="1" parent="1">
          <mxGeometry x="779.97" y="265" width="120" height="50" as="geometry" />
        </mxCell>
        <mxCell id="hqtBU6SoIQfOZgackHXl-7" value="" style="edgeStyle=orthogonalEdgeStyle;rounded=0;orthogonalLoop=1;jettySize=auto;html=1;endArrow=none;endFill=0;" edge="1" parent="1" source="hqtBU6SoIQfOZgackHXl-8" target="hqtBU6SoIQfOZgackHXl-11">
          <mxGeometry relative="1" as="geometry" />
        </mxCell>
        <mxCell id="hqtBU6SoIQfOZgackHXl-8" value="С&lt;br&gt;j &amp;lt; n" style="shape=loopLimit;whiteSpace=wrap;html=1;fontStyle=0;fontSize=10;" vertex="1" parent="1">
          <mxGeometry x="719.97" y="345" width="120" height="40" as="geometry" />
        </mxCell>
        <mxCell id="hqtBU6SoIQfOZgackHXl-9" value="Да" style="text;html=1;strokeColor=none;fillColor=none;align=center;verticalAlign=middle;whiteSpace=wrap;rounded=0;fontSize=7;" vertex="1" parent="1">
          <mxGeometry x="799.97" y="125" width="60" height="30" as="geometry" />
        </mxCell>
        <mxCell id="hqtBU6SoIQfOZgackHXl-10" style="edgeStyle=orthogonalEdgeStyle;rounded=0;orthogonalLoop=1;jettySize=auto;html=1;exitX=0;exitY=0.5;exitDx=0;exitDy=0;exitPerimeter=0;entryX=0.5;entryY=1;entryDx=0;entryDy=0;" edge="1" parent="1" source="hqtBU6SoIQfOZgackHXl-11" target="hqtBU6SoIQfOZgackHXl-16">
          <mxGeometry relative="1" as="geometry">
            <Array as="points">
              <mxPoint x="700" y="435" />
              <mxPoint x="700" y="700" />
              <mxPoint x="760" y="700" />
            </Array>
          </mxGeometry>
        </mxCell>
        <mxCell id="hqtBU6SoIQfOZgackHXl-11" value="i != j" style="strokeWidth=1;html=1;shape=mxgraph.flowchart.decision;whiteSpace=wrap;" vertex="1" parent="1">
          <mxGeometry x="719.97" y="405" width="120" height="60" as="geometry" />
        </mxCell>
        <mxCell id="hqtBU6SoIQfOZgackHXl-12" value="factor = matrix[i][i]" style="rounded=0;whiteSpace=wrap;html=1;absoluteArcSize=1;arcSize=14;strokeWidth=1;fontStyle=0;fontSize=10;" vertex="1" parent="1">
          <mxGeometry x="799.97" y="470" width="120" height="50" as="geometry" />
        </mxCell>
        <mxCell id="hqtBU6SoIQfOZgackHXl-13" value="" style="endArrow=none;html=1;rounded=0;exitX=1;exitY=0.5;exitDx=0;exitDy=0;exitPerimeter=0;entryX=0.5;entryY=0;entryDx=0;entryDy=0;endFill=0;" edge="1" parent="1" source="hqtBU6SoIQfOZgackHXl-11" target="hqtBU6SoIQfOZgackHXl-12">
          <mxGeometry width="50" height="50" relative="1" as="geometry">
            <mxPoint x="1069.97" y="395" as="sourcePoint" />
            <mxPoint x="1119.97" y="345" as="targetPoint" />
            <Array as="points">
              <mxPoint x="859.97" y="435" />
            </Array>
          </mxGeometry>
        </mxCell>
        <mxCell id="hqtBU6SoIQfOZgackHXl-14" value="Да" style="text;html=1;strokeColor=none;fillColor=none;align=center;verticalAlign=middle;whiteSpace=wrap;rounded=0;fontSize=7;" vertex="1" parent="1">
          <mxGeometry x="819.97" y="415" width="60" height="30" as="geometry" />
        </mxCell>
        <mxCell id="hqtBU6SoIQfOZgackHXl-15" style="edgeStyle=orthogonalEdgeStyle;rounded=0;orthogonalLoop=1;jettySize=auto;html=1;exitX=0.5;exitY=0;exitDx=0;exitDy=0;endArrow=none;endFill=0;" edge="1" parent="1" source="hqtBU6SoIQfOZgackHXl-16" target="hqtBU6SoIQfOZgackHXl-22">
          <mxGeometry relative="1" as="geometry" />
        </mxCell>
        <mxCell id="hqtBU6SoIQfOZgackHXl-16" value="С" style="shape=loopLimit;whiteSpace=wrap;html=1;fontStyle=0;fontSize=10;direction=west;" vertex="1" parent="1">
          <mxGeometry x="699.97" y="720" width="120" height="40" as="geometry" />
        </mxCell>
        <mxCell id="hqtBU6SoIQfOZgackHXl-17" value="вычитание из j строки помноженную на factor i строку" style="shape=process;whiteSpace=wrap;html=1;backgroundOutline=1;fontSize=10;" vertex="1" parent="1">
          <mxGeometry x="799.97" y="540" width="120" height="60" as="geometry" />
        </mxCell>
        <mxCell id="hqtBU6SoIQfOZgackHXl-18" value="" style="endArrow=classic;html=1;rounded=0;exitX=0.5;exitY=1;exitDx=0;exitDy=0;" edge="1" parent="1" source="hqtBU6SoIQfOZgackHXl-6">
          <mxGeometry width="50" height="50" relative="1" as="geometry">
            <mxPoint x="969.97" y="405" as="sourcePoint" />
            <mxPoint x="779.97" y="345" as="targetPoint" />
            <Array as="points">
              <mxPoint x="839.97" y="325" />
              <mxPoint x="809.97" y="325" />
              <mxPoint x="779.97" y="325" />
              <mxPoint x="779.97" y="345" />
            </Array>
          </mxGeometry>
        </mxCell>
        <mxCell id="hqtBU6SoIQfOZgackHXl-19" value="вычитание из j строки помноженную на factor i строку" style="shape=process;whiteSpace=wrap;html=1;backgroundOutline=1;fontSize=10;" vertex="1" parent="1">
          <mxGeometry x="799.97" y="620" width="120" height="60" as="geometry" />
        </mxCell>
        <mxCell id="hqtBU6SoIQfOZgackHXl-20" value="" style="endArrow=none;html=1;rounded=0;exitX=0.5;exitY=1;exitDx=0;exitDy=0;entryX=0.5;entryY=0;entryDx=0;entryDy=0;endFill=0;" edge="1" parent="1" source="hqtBU6SoIQfOZgackHXl-12" target="hqtBU6SoIQfOZgackHXl-17">
          <mxGeometry width="50" height="50" relative="1" as="geometry">
            <mxPoint x="969.97" y="645" as="sourcePoint" />
            <mxPoint x="1019.97" y="595" as="targetPoint" />
          </mxGeometry>
        </mxCell>
        <mxCell id="hqtBU6SoIQfOZgackHXl-21" value="" style="endArrow=none;html=1;rounded=0;exitX=0.5;exitY=0;exitDx=0;exitDy=0;entryX=0.5;entryY=1;entryDx=0;entryDy=0;endFill=0;" edge="1" parent="1" source="hqtBU6SoIQfOZgackHXl-19" target="hqtBU6SoIQfOZgackHXl-17">
          <mxGeometry width="50" height="50" relative="1" as="geometry">
            <mxPoint x="869.97" y="515" as="sourcePoint" />
            <mxPoint x="869.97" y="535" as="targetPoint" />
          </mxGeometry>
        </mxCell>
        <mxCell id="hqtBU6SoIQfOZgackHXl-22" value="А" style="shape=loopLimit;whiteSpace=wrap;html=1;fontStyle=0;fontSize=10;direction=west;" vertex="1" parent="1">
          <mxGeometry x="789.97" y="800" width="120" height="40" as="geometry" />
        </mxCell>
        <mxCell id="hqtBU6SoIQfOZgackHXl-23" value="" style="endArrow=none;html=1;rounded=0;exitX=0.5;exitY=1;exitDx=0;exitDy=0;endFill=0;" edge="1" parent="1" source="hqtBU6SoIQfOZgackHXl-19">
          <mxGeometry width="50" height="50" relative="1" as="geometry">
            <mxPoint x="859.9699999999998" y="690" as="sourcePoint" />
            <mxPoint x="760" y="700" as="targetPoint" />
            <Array as="points">
              <mxPoint x="859.97" y="700" />
            </Array>
          </mxGeometry>
        </mxCell>
        <mxCell id="hqtBU6SoIQfOZgackHXl-24" value="A" style="ellipse;whiteSpace=wrap;html=1;aspect=fixed;" vertex="1" parent="1">
          <mxGeometry x="734.97" y="45" width="50" height="50" as="geometry" />
        </mxCell>
        <mxCell id="hqtBU6SoIQfOZgackHXl-25" value="" style="endArrow=none;html=1;rounded=0;exitX=0.5;exitY=1;exitDx=0;exitDy=0;entryX=0.5;entryY=0;entryDx=0;entryDy=0;entryPerimeter=0;endFill=0;" edge="1" parent="1" source="hqtBU6SoIQfOZgackHXl-24" target="hqtBU6SoIQfOZgackHXl-3">
          <mxGeometry width="50" height="50" relative="1" as="geometry">
            <mxPoint x="929.97" y="375" as="sourcePoint" />
            <mxPoint x="979.97" y="325" as="targetPoint" />
          </mxGeometry>
        </mxCell>
        <mxCell id="hqtBU6SoIQfOZgackHXl-26" style="edgeStyle=orthogonalEdgeStyle;rounded=0;orthogonalLoop=1;jettySize=auto;html=1;exitX=0.5;exitY=1;exitDx=0;exitDy=0;entryX=0.5;entryY=1;entryDx=0;entryDy=0;endArrow=none;endFill=0;" edge="1" parent="1" source="hqtBU6SoIQfOZgackHXl-27" target="hqtBU6SoIQfOZgackHXl-22">
          <mxGeometry relative="1" as="geometry">
            <Array as="points">
              <mxPoint x="945" y="780" />
              <mxPoint x="850" y="780" />
            </Array>
          </mxGeometry>
        </mxCell>
        <mxCell id="hqtBU6SoIQfOZgackHXl-27" value="Б" style="ellipse;whiteSpace=wrap;html=1;aspect=fixed;" vertex="1" parent="1">
          <mxGeometry x="919.97" y="45" width="50" height="50" as="geometry" />
        </mxCell>
        <mxCell id="hqtBU6SoIQfOZgackHXl-28" value="Конец" style="strokeWidth=1;html=1;shape=mxgraph.flowchart.terminator;whiteSpace=wrap;fontStyle=0;fontSize=10;" vertex="1" parent="1">
          <mxGeometry x="790" y="860" width="120" height="50" as="geometry" />
        </mxCell>
        <mxCell id="hqtBU6SoIQfOZgackHXl-29" value="" style="endArrow=none;html=1;rounded=0;exitX=0.5;exitY=0;exitDx=0;exitDy=0;entryX=0.5;entryY=0;entryDx=0;entryDy=0;entryPerimeter=0;endFill=0;" edge="1" parent="1" source="hqtBU6SoIQfOZgackHXl-22" target="hqtBU6SoIQfOZgackHXl-28">
          <mxGeometry width="50" height="50" relative="1" as="geometry">
            <mxPoint x="944.97" y="750" as="sourcePoint" />
            <mxPoint x="994.97" y="700" as="targetPoint" />
          </mxGeometry>
        </mxCell>
      </root>
    </mxGraphModel>
  </diagram>
</mxfile>
